<svg xmlns="http://www.w3.org/2000/svg" xmlns:xlink="http://www.w3.org/1999/xlink" width="1920" height="1080">
  <defs>
    <clipPath id="clip-Web_1920_4">
      <rect width="1920" height="1080"/>
    </clipPath>
  </defs>
  <g id="Web_1920_4" data-name="Web 1920 – 4" clip-path="url(#clip-Web_1920_4)">
    <rect width="1920" height="1080" fill="#fff"/>
    <path id="Path_9" data-name="Path 9" d="M1990,3615.243s153.787-63.276,243.809-67.465,140.673,44.456,215,46.208,98.753-32.44,141.641-34.665,60.845,55.484,166.889,55.922,79.27-36.453,111.031-37.032,25.547,24.732,65.861,24.732,79.933-58.14,178.573-55.166S3362.867,3697,3429.633,3696.907s86.659-82.053,124.256-81.664,22.006,29.289,59.56,30.836,72.926-101.579,125.393-98.3,53,68.426,93.646,67.465,78.128-89.47,78.128-89.47l-.6,793.85-1919.461.484Z" transform="translate(-1990 -3240)" fill="#d6e2c8"/>
    <path id="Path_10" data-name="Path 10" d="M1990,4882.368s133.261,9.274,181.522,10.715,164.455-31.571,257.828-34.884,123.528,34.9,215.352,34.884,99.72-13.775,185.045-10.715,194.737,90.484,268.183,90.022,60.575-78.018,107.319-79.307,47.306,37.1,108.039,37.1,61.22-47.413,123.913-47.812,78.22,56.112,125.88,56.112,74.394-38.037,114.592-37.3,111-20.636,152.461-18.815,80.225,61.661,80.225,61.661l-.739,594.7-1920.548.211Z" transform="translate(-1990 -4459)" fill="#adbca1"/>
    <path id="Path_11" data-name="Path 11" d="M3980,4953.712s15.2-25.545,30.259-25.545,29.909,23.666,55.4,25.545,28.117-24.735,59.631-25.545,100.7,95.318,178.961,90.294,149.58-139.732,203.164-139.686,132.745,109.756,200.607,112.679,54.922-59.9,111.61-63.287,142.732,128.966,188.184,130.623,58.341-20.485,103.085-19.292,98.752,87.19,142.938,87.19,66.385-197.494,100.792-198.521,45.018,60.576,90.847,63.287,23.965-39.761,60.55-41.739,21.006,48.891,67.393,48.891,22.023-73.119,58.216-70.439,27.28,77.565,59.451,78.5,108.878-225.61,163.108-225.146,47.192,65.446,47.192,65.446v688.351L3980,5536.51Z" transform="translate(-3982 -4457)" fill="#949f88"/>
    <path id="Path_12" data-name="Path 12" d="M5970,4955.51s112.078,9.386,194.5,44.368,109.373,51.411,228.237,56.808,207.855-66.194,300.327-68.871,127.777,82.649,213.121,82.929,55.933-43.345,91.9-45.9,128.189,170.782,193.806,182.268,192.581-10.025,264.829-28.649,110.265,28.36,161.4,28.649,80.855-61.4,144.451-90.662,129.939-91.606,129.939-91.606V5533H5970Z" transform="translate(-5971 -4453)" fill="#788070" stroke="#707070" stroke-width="1"/>
    <path id="Subtraction_1" data-name="Subtraction 1" d="M1922.9,553.5H0V1.177A47.277,47.277,0,0,1,10.5,0a47.052,47.052,0,0,1,43.306,28.7A46.709,46.709,0,0,1,57.5,47a47.485,47.485,0,0,1-.733,8.315A55.53,55.53,0,0,1,139.05,118.86a52.486,52.486,0,0,1,13.074,9.08,78.858,78.858,0,0,1,11.541,13.737,114.53,114.53,0,0,1,9.658,17.755,153.008,153.008,0,0,1,7.423,21.137,144.124,144.124,0,0,1,9.862-26.6,96.977,96.977,0,0,1,13.516-20.722,58.51,58.51,0,0,1,16.39-13.452,38.026,38.026,0,0,1,36.74-.122,57.941,57.941,0,0,1,16.224,13.122c10.026,11.33,18.1,27.325,23.361,46.257a147.53,147.53,0,0,1,3.1-34.259A111.2,111.2,0,0,1,310.41,115.6,78.045,78.045,0,0,1,327.553,93.58a60.078,60.078,0,0,1,23.13-12.757,58.9,58.9,0,0,1,16.24-2.268,70.4,70.4,0,0,1,30.241,7.225,104.9,104.9,0,0,1,28.325,20.264,146.5,146.5,0,0,1,23.868,31.183,177.589,177.589,0,0,1,16.869,39.982l.008.028.01.036a47.627,47.627,0,0,0,9.585,9.627,14.025,14.025,0,0,0,8.028,2.931c3.54,0,7-1.823,10.879-5.737,3.54-3.568,7.075-8.464,11.17-14.133l.049-.068a91.2,91.2,0,0,1,11.266-22.151,81.846,81.846,0,0,1,16.233-17.361A68.856,68.856,0,0,1,576.5,115a66.887,66.887,0,0,1,24.586,4.68,73.011,73.011,0,0,1,21.234,13.005,83.72,83.72,0,0,1,16.535,19.779,93.2,93.2,0,0,1,10.488,25c1.6.5,3.177,1,4.685,1.484a396.836,396.836,0,0,1,5.337-41.573,221.049,221.049,0,0,1,8.495-32.917c3.325-9.369,7.008-16.656,10.947-21.659,4.074-5.175,8.345-7.8,12.693-7.8s8.6,2.614,12.67,7.768c3.932,4.984,7.61,12.245,10.931,21.58a220.167,220.167,0,0,1,8.491,32.8,395.766,395.766,0,0,1,5.351,41.44c3.84-14.446,9.518-26.6,16.421-35.146a41.089,41.089,0,0,1,11.156-9.921A24.747,24.747,0,0,1,769,130a23.79,23.79,0,0,1,9.17,1.879,32.162,32.162,0,0,1,8.541,5.39,50.17,50.17,0,0,1,7.729,8.529,76.915,76.915,0,0,1,6.734,11.295,124.033,124.033,0,0,1,9.751,29.4,177.226,177.226,0,0,1,3.576,36,182.852,182.852,0,0,1-1.975,27.038c.205,17.493,2.538,26,7.132,26,1.5,0,3.276-.923,5.282-2.743a49.757,49.757,0,0,0,6.874-8.3c5.128-7.4,11.292-18.4,18.845-33.638.959-.141,1.962-.247,2.982-.315a88.112,88.112,0,0,1,11.716-12.719,75.755,75.755,0,0,1,13.522-9.616,66.492,66.492,0,0,1,14.993-6.085A62.469,62.469,0,0,1,910,200a63.2,63.2,0,0,1,27.181,6.188,76.444,76.444,0,0,1,23.058,17.088,98.325,98.325,0,0,1,17.206,25.771,117.893,117.893,0,0,1,9.622,32.238,89.5,89.5,0,0,1,9.414-19.562,72.213,72.213,0,0,1,13.065-15.263c10.092-8.806,21.833-13.46,33.954-13.46A47.567,47.567,0,0,1,1056,234.675a51.2,51.2,0,0,1,11.638,4.807,59.409,59.409,0,0,1,10.532,7.607,70.54,70.54,0,0,1,9.176,10.074,82.609,82.609,0,0,1,7.571,12.21,93.842,93.842,0,0,1,5.717,14.014A105.851,105.851,0,0,1,1105.5,315.5a102.927,102.927,0,0,1-9.825,44.587c31.987,17.77,59.87,30.728,85.239,39.613a93.872,93.872,0,0,1-3.415-25.2,92.686,92.686,0,0,1,5.933-32.891,88.115,88.115,0,0,1,6.961-14.354,83.827,83.827,0,0,1,9.219-12.506,78.638,78.638,0,0,1,11.174-10.318,73.411,73.411,0,0,1,12.825-7.791,69.409,69.409,0,0,1,14.172-4.924,68.261,68.261,0,0,1,38.828,2.5,72.55,72.55,0,0,1,20.558,11.748,80.732,80.732,0,0,1,16.3,17.935,87.921,87.921,0,0,1,10.84,22.775c10.923-16.14,23.576-29.688,36.592-39.179,12.967-9.456,25.694-14.455,36.8-14.455a31.168,31.168,0,0,1,14.8,3.536,32.344,32.344,0,0,1,13.277,13.734c3.2,5.984,5.265,13.315,6.135,21.79a110.2,110.2,0,0,1-.98,27.618,166.956,166.956,0,0,1-8.068,31.218c10.222-2.31,21.33-4.9,33.957-7.929A84.978,84.978,0,0,1,1455.5,368a82.391,82.391,0,0,1,3.89-25.3A68.693,68.693,0,0,1,1470,322.038a55.848,55.848,0,0,1,7.326-7.937,47.416,47.416,0,0,1,8.408-5.993,38.784,38.784,0,0,1,35.7-1.441,47.444,47.444,0,0,1,14.1,10.165,62.009,62.009,0,0,1,10.814,15.412,75.917,75.917,0,0,1,6.577,19.408,136.207,136.207,0,0,1,.519-27.875,92.674,92.674,0,0,1,5.85-23.3,50.623,50.623,0,0,1,10.559-16.73,28.128,28.128,0,0,1,14.647-8.158,25.7,25.7,0,0,1,4.889-.469c8.871,0,18.156,4.543,26.85,13.138,8.567,8.469,16.151,20.442,21.931,34.624a.154.154,0,0,0,0-.022c4.471-25.353,12.856-48.8,23.609-66.034,5.233-8.384,10.795-14.947,16.53-19.507,5.9-4.694,11.764-7.073,17.418-7.073a19.623,19.623,0,0,1,3.4.3,21.737,21.737,0,0,1,11,5.706,40.867,40.867,0,0,1,8.631,12.142c4.907,10,8.063,23.611,9.127,39.346a204.274,204.274,0,0,1,45.14-16.108,100.3,100.3,0,0,1,8.68-21.269,75.222,75.222,0,0,1,12.332-16.642c9.6-9.629,20.823-14.719,32.46-14.719a41.1,41.1,0,0,1,18.119,4.28,54.339,54.339,0,0,1,15.779,11.93,78.491,78.491,0,0,1,12.518,18.214,104.413,104.413,0,0,1,8.337,23.133c17.528,7.19,30.585,17.625,37.757,30.176,2.545-.827,3.884-1.3,3.894-1.3v9.935c.033.1.064.192.1.288v30.279q-.048.155-.1.309V553.5Z" transform="translate(0.5 526)" fill="#656a5e"/>
  </g>
</svg>
