<svg xmlns="http://www.w3.org/2000/svg" viewBox="-5 -5 110 110" x="0px" y="0px"><title>Artboard 1</title><g><path d="M54.2212,76.9678A7.9208,7.9208,0,0,0,56,72a8,8,0,0,0-16,0,7.9208,7.9208,0,0,0,1.7788,4.9678A9.991,9.991,0,0,0,36,86a1.9988,1.9988,0,0,0,2,2H58a1.9988,1.9988,0,0,0,2-2A9.991,9.991,0,0,0,54.2212,76.9678ZM48,68a4,4,0,1,1-4,4A4.0052,4.0052,0,0,1,48,68ZM40.3418,84A6.0125,6.0125,0,0,1,46,80h4a6.0125,6.0125,0,0,1,5.6582,4Z"/><path d="M30.2212,64.9678A7.9208,7.9208,0,0,0,32,60a8,8,0,0,0-16,0,7.9208,7.9208,0,0,0,1.7788,4.9678A9.991,9.991,0,0,0,12,74a1.9988,1.9988,0,0,0,2,2H34a1.9988,1.9988,0,0,0,2-2A9.991,9.991,0,0,0,30.2212,64.9678ZM24,56a4,4,0,1,1-4,4A4.0052,4.0052,0,0,1,24,56ZM16.3418,72A6.0125,6.0125,0,0,1,22,68h4a6.0125,6.0125,0,0,1,5.6582,4Z"/><path d="M36,58a1.9988,1.9988,0,0,0,2,2H58a1.9988,1.9988,0,0,0,2-2,9.991,9.991,0,0,0-5.7788-9.0322A7.9208,7.9208,0,0,0,56,44a8,8,0,0,0-16,0,7.9208,7.9208,0,0,0,1.7788,4.9678A9.991,9.991,0,0,0,36,58ZM48,40a4,4,0,1,1-4,4A4.0052,4.0052,0,0,1,48,40ZM46,52h4a6.0125,6.0125,0,0,1,5.6582,4H40.3418A6.0125,6.0125,0,0,1,46,52Z"/><path d="M78.2212,64.9678A7.9208,7.9208,0,0,0,80,60a8,8,0,0,0-16,0,7.9208,7.9208,0,0,0,1.7788,4.9678A9.991,9.991,0,0,0,60,74a1.9988,1.9988,0,0,0,2,2H82a1.9988,1.9988,0,0,0,2-2A9.991,9.991,0,0,0,78.2212,64.9678ZM72,56a4,4,0,1,1-4,4A4.0052,4.0052,0,0,1,72,56ZM64.3418,72A6.0125,6.0125,0,0,1,70,68h4a6.0125,6.0125,0,0,1,5.6582,4Z"/><path d="M60,46a1.9988,1.9988,0,0,0,2,2H82a1.9988,1.9988,0,0,0,2-2,9.991,9.991,0,0,0-5.7788-9.0322A7.9208,7.9208,0,0,0,80,32a8,8,0,0,0-16,0,7.9208,7.9208,0,0,0,1.7788,4.9678A9.991,9.991,0,0,0,60,46ZM72,28a4,4,0,1,1-4,4A4.0052,4.0052,0,0,1,72,28ZM70,40h4a6.0125,6.0125,0,0,1,5.6582,4H64.3418A6.0125,6.0125,0,0,1,70,40Z"/><path d="M14,48H34a1.9988,1.9988,0,0,0,2-2,9.991,9.991,0,0,0-5.7788-9.0322A7.9208,7.9208,0,0,0,32,32a8,8,0,0,0-16,0,7.9208,7.9208,0,0,0,1.7788,4.9678A9.991,9.991,0,0,0,12,46,1.9988,1.9988,0,0,0,14,48ZM24,28a4,4,0,1,1-4,4A4.0052,4.0052,0,0,1,24,28ZM22,40h4a6.0125,6.0125,0,0,1,5.6582,4H16.3418A6.0125,6.0125,0,0,1,22,40Z"/><path d="M38,32H58a1.9988,1.9988,0,0,0,2-2,9.991,9.991,0,0,0-5.7788-9.0322A7.9208,7.9208,0,0,0,56,16a8,8,0,0,0-16,0,7.9208,7.9208,0,0,0,1.7788,4.9678A9.991,9.991,0,0,0,36,30,1.9988,1.9988,0,0,0,38,32ZM48,12a4,4,0,1,1-4,4A4.0052,4.0052,0,0,1,48,12ZM46,24h4a6.0125,6.0125,0,0,1,5.6582,4H40.3418A6.0125,6.0125,0,0,1,46,24Z"/></g></svg>