<svg xmlns="http://www.w3.org/2000/svg" xmlns:xlink="http://www.w3.org/1999/xlink" version="1.2" baseProfile="tiny" x="0px" y="0px" viewBox="-20 -20 130 130" xml:space="preserve"><path d="M49.483,66.88c-6.298-4.579-11.785-10.065-16.363-16.363l5.989-5.989L30.849,22.5h-3.811   c-5.809,0-11.271,2.262-15.378,6.369v0C7.365,33.165,5,38.875,5,44.949c0,4.022,1.071,7.985,3.098,11.458   c8.555,14.666,20.829,26.939,35.495,35.495C47.066,93.929,51.028,95,55.051,95c6.074,0,11.784-2.365,16.08-6.66   c4.107-4.107,6.369-9.569,6.369-15.378v-3.811l-22.028-8.26L49.483,66.88z M69.936,74.325c-0.31,3.291-1.742,6.345-4.108,8.711   c-2.879,2.878-6.707,4.464-10.777,4.464c-2.696,0-5.351-0.718-7.679-2.076C33.821,77.52,22.48,66.179,14.576,52.628   C13.218,50.3,12.5,47.645,12.5,44.949c0-4.07,1.585-7.898,4.464-10.777v0c2.367-2.367,5.42-3.799,8.711-4.109l4.716,12.575   l-6.967,6.966l1.706,2.558c6.027,9.04,13.667,16.68,22.707,22.707l2.558,1.706l6.966-6.967L69.936,74.325z"/><path d="M70,5c0,0-10.024,7.471-20,7.471C50,41.168,66.667,48.234,70,50c3.333-1.766,20-8.832,20-37.529C80.024,12.471,70,5,70,5z    M70,44.35c-4.752-2.677-13.582-9.296-14.847-27.382c6.11-1.149,11.616-4.021,14.847-5.984c3.232,1.963,8.738,4.835,14.847,5.984   C83.582,35.054,74.752,41.673,70,44.35z"/></svg>