<svg xmlns="http://www.w3.org/2000/svg" xmlns:xlink="http://www.w3.org/1999/xlink" version="1.1" x="0px" y="0px" viewBox="0 0 64 64" style="enable-background:new 0 0 64 64;" xml:space="preserve"><g><text transform="matrix(1 0 0 1 -472.8999 -21.0002)"><tspan x="0" y="0" style="" font-family="'Montserrat-Regular'" font-size="10px">HOSPI</tspan><tspan x="31.979" y="0" style="" font-family="'Montserrat-Regular'" font-size="10px">T</tspan><tspan x="37.08" y="0" style="" font-family="'Montserrat-Regular'" font-size="10px">AL</tspan></text><text transform="matrix(1 0 0 1 -373.48 -21.0002)"><tspan x="0" y="0" style="" font-family="'Montserrat-Regular'" font-size="10px">DO</tspan><tspan x="15.29" y="0" style="" font-family="'Montserrat-Regular'" font-size="10px">C</tspan><tspan x="22.26" y="0" style="" font-family="'Montserrat-Regular'" font-size="10px">T</tspan><tspan x="27.63" y="0" style="" font-family="'Montserrat-Regular'" font-size="10px">OR</tspan></text><text transform="matrix(1 0 0 1 -366.8198 74.9998)"><tspan x="0" y="0" style="" font-family="'Montserrat-Regular'" font-size="10px">BONE</tspan><tspan x="-6.995" y="12" style="" font-family="'Montserrat-Regular'" font-size="10px">DENSITY</tspan></text><text transform="matrix(1 0 0 1 -278.575 -21.0002)" style="" font-family="'Montserrat-Regular'" font-size="10px">ELDERLY</text><text transform="matrix(1 0 0 1 -178.0347 -21.0002)"><tspan x="0" y="0" style="" font-family="'Montserrat-Regular'" font-size="10px">BL</tspan><tspan x="12.4" y="0" style="" font-family="'Montserrat-Regular'" font-size="10px">O</tspan><tspan x="20.22" y="0" style="" font-family="'Montserrat-Regular'" font-size="10px">OD</tspan><tspan x="-9.16" y="12" style="" font-family="'Montserrat-Regular'" font-size="10px">PRESSURE</tspan></text><text transform="matrix(1 0 0 1 -78.625 -21.0002)"><tspan x="0" y="0" style="" font-family="'Montserrat-Regular'" font-size="10px">BO</tspan><tspan x="15.16" y="0" style="" font-family="'Montserrat-Regular'" font-size="10px">D</tspan><tspan x="22.88" y="0" style="" font-family="'Montserrat-Regular'" font-size="10px">Y</tspan><tspan x="-5.94" y="12" style="" font-family="'Montserrat-Regular'" font-size="10px">WEIGHT</tspan></text><text transform="matrix(1 0 0 1 12.6602 -21.0002)" style="" font-family="'Montserrat-Regular'" font-size="10px">HEIGHT</text><text transform="matrix(1 0 0 1 -474.0898 74.9998)" style="" font-family="'Montserrat-Regular'" font-size="10px">EYE EXAM</text><text transform="matrix(1 0 0 1 -274.0347 74.9998)"><tspan x="0" y="0" style="" font-family="'Montserrat-Regular'" font-size="10px">BL</tspan><tspan x="12.4" y="0" style="" font-family="'Montserrat-Regular'" font-size="10px">O</tspan><tspan x="20.22" y="0" style="" font-family="'Montserrat-Regular'" font-size="10px">OD</tspan><tspan x="5.855" y="12" style="" font-family="'Montserrat-Regular'" font-size="10px">TEST</tspan></text><text transform="matrix(1 0 0 1 -178.0347 74.9998)"><tspan x="0" y="0" style="" font-family="'Montserrat-Regular'" font-size="10px">BL</tspan><tspan x="12.4" y="0" style="" font-family="'Montserrat-Regular'" font-size="10px">O</tspan><tspan x="20.22" y="0" style="" font-family="'Montserrat-Regular'" font-size="10px">OD</tspan><tspan x="-9.775" y="12" style="" font-family="'Montserrat-Regular'" font-size="10px">GROUPING</tspan></text><text transform="matrix(1 0 0 1 -88.9448 74.9998)"><tspan x="0" y="0" style="" font-family="'Montserrat-Regular'" font-size="10px">PHYSI</tspan><tspan x="30.25" y="0" style="" font-family="'Montserrat-Regular'" font-size="10px">C</tspan><tspan x="37.169" y="0" style="" font-family="'Montserrat-Regular'" font-size="10px">AL</tspan><tspan x="-11.34" y="12" style="" font-family="'Montserrat-Regular'" font-size="10px">EXAMIN</tspan><tspan x="29.709" y="12" style="" font-family="'Montserrat-Regular'" font-size="10px">A</tspan><tspan x="36.399" y="12" style="" font-family="'Montserrat-Regular'" font-size="10px">TION</tspan></text><text transform="matrix(1 0 0 1 4.5151 74.9998)"><tspan x="0" y="0" style="" font-family="'Montserrat-Regular'" font-size="10px">VI</tspan><tspan x="9.92" y="0" style="" font-family="'Montserrat-Regular'" font-size="10px">T</tspan><tspan x="15.02" y="0" style="" font-family="'Montserrat-Regular'" font-size="10px">AL SIGN</tspan></text><text transform="matrix(1 0 0 1 -475.5747 170.9998)"><tspan x="0" y="0" style="" font-family="'Montserrat-Regular'" font-size="10px">C</tspan><tspan x="6.82" y="0" style="" font-family="'Montserrat-Regular'" font-size="10px">OMPLETE</tspan><tspan x="-9.885" y="12" style="" font-family="'Montserrat-Regular'" font-size="10px">BL</tspan><tspan x="2.515" y="12" style="" font-family="'Montserrat-Regular'" font-size="10px">O</tspan><tspan x="10.334" y="12" style="" font-family="'Montserrat-Regular'" font-size="10px">OD </tspan><tspan x="28.765" y="12" style="" font-family="'Montserrat-Regular'" font-size="10px">C</tspan><tspan x="35.584" y="12" style="" font-family="'Montserrat-Regular'" font-size="10px">OUNT</tspan></text><text transform="matrix(1 0 0 1 -373.6147 170.9998)"><tspan x="0" y="0" style="" font-family="'Montserrat-Regular'" font-size="10px">F</tspan><tspan x="5.47" y="0" style="" font-family="'Montserrat-Regular'" font-size="10px">A</tspan><tspan x="12.79" y="0" style="" font-family="'Montserrat-Regular'" font-size="10px">STING</tspan><tspan x="-15.69" y="12" style="" font-family="'Montserrat-Regular'" font-size="10px">BL</tspan><tspan x="-3.29" y="12" style="" font-family="'Montserrat-Regular'" font-size="10px">O</tspan><tspan x="4.53" y="12" style="" font-family="'Montserrat-Regular'" font-size="10px">OD SUGAR</tspan></text><text transform="matrix(1 0 0 1 -272.5947 170.9998)"><tspan x="0" y="0" style="" font-family="'Montserrat-Regular'" font-size="10px">HBA1C</tspan><tspan x="4.415" y="12" style="" font-family="'Montserrat-Regular'" font-size="10px">TEST</tspan></text><text transform="matrix(1 0 0 1 -185.2246 170.9998)"><tspan x="0" y="0" style="" font-family="'Montserrat-Regular'" font-size="10px">LIPID(</tspan><tspan x="29.049" y="0" style="" font-family="'Montserrat-Regular'" font-size="10px">F</tspan><tspan x="34.52" y="0" style="" font-family="'Montserrat-Regular'" font-size="10px">A</tspan><tspan x="41.209" y="0" style="" font-family="'Montserrat-Regular'" font-size="10px">T)</tspan><tspan x="3.86" y="12" style="" font-family="'Montserrat-Regular'" font-size="10px">PROFILE</tspan></text><text transform="matrix(1 0 0 1 -78.5098 170.9998)" style="" font-family="'Montserrat-Regular'" font-size="10px">GOUT</text><text transform="matrix(1 0 0 1 12.6001 170.9998)" style="" font-family="'Montserrat-Regular'" font-size="10px">KIDNEY</text><text transform="matrix(1 0 0 1 -462.5249 266.9998)" style="" font-family="'Montserrat-Regular'" font-size="10px">LIVER</text><text transform="matrix(1 0 0 1 -375.085 266.9998)" style="" font-family="'Montserrat-Regular'" font-size="10px">THYROID</text><text transform="matrix(1 0 0 1 -281.6445 266.9998)"><tspan x="0" y="0" style="" font-family="'Montserrat-Regular'" font-size="10px">HE</tspan><tspan x="14.47" y="0" style="" font-family="'Montserrat-Regular'" font-size="10px">P</tspan><tspan x="20.76" y="0" style="" font-family="'Montserrat-Regular'" font-size="10px">A</tspan><tspan x="27.45" y="0" style="" font-family="'Montserrat-Regular'" font-size="10px">TITIS</tspan></text><text transform="matrix(1 0 0 1 -181.4897 266.9998)"><tspan x="0" y="0" style="" font-family="'Montserrat-Regular'" font-size="10px">C</tspan><tspan x="6.92" y="0" style="" font-family="'Montserrat-Regular'" font-size="10px">ANCER</tspan><tspan x="-8.455" y="12" style="" font-family="'Montserrat-Regular'" font-size="10px">SCREENING</tspan></text><text transform="matrix(1 0 0 1 -80.1846 266.9998)"><tspan x="0" y="0" style="" font-family="'Montserrat-Regular'" font-size="10px">URINE</tspan><tspan x="-20.1" y="12" style="" font-family="'Montserrat-Regular'" font-size="10px">EXAMIN</tspan><tspan x="20.949" y="12" style="" font-family="'Montserrat-Regular'" font-size="10px">A</tspan><tspan x="27.639" y="12" style="" font-family="'Montserrat-Regular'" font-size="10px">TION</tspan></text><text transform="matrix(1 0 0 1 15.5752 266.9998)"><tspan x="0" y="0" style="" font-family="'Montserrat-Regular'" font-size="10px">S</tspan><tspan x="6.22" y="0" style="" font-family="'Montserrat-Regular'" font-size="10px">T</tspan><tspan x="11.59" y="0" style="" font-family="'Montserrat-Regular'" font-size="10px">O</tspan><tspan x="19.41" y="0" style="" font-family="'Montserrat-Regular'" font-size="10px">OL</tspan><tspan x="-19.86" y="12" style="" font-family="'Montserrat-Regular'" font-size="10px">EXAMIN</tspan><tspan x="21.189" y="12" style="" font-family="'Montserrat-Regular'" font-size="10px">A</tspan><tspan x="27.879" y="12" style="" font-family="'Montserrat-Regular'" font-size="10px">TION</tspan></text><text transform="matrix(1 0 0 1 -506.8696 362.9998)"><tspan x="0" y="0" style="" font-family="'Montserrat-Regular'" font-size="10px">ELECTR</tspan><tspan x="38.45" y="0" style="" font-family="'Montserrat-Regular'" font-size="10px">O</tspan><tspan x="46.27" y="0" style="" font-family="'Montserrat-Regular'" font-size="10px">C</tspan><tspan x="53.189" y="0" style="" font-family="'Montserrat-Regular'" font-size="10px">ARDI</tspan><tspan x="78.569" y="0" style="" font-family="'Montserrat-Regular'" font-size="10px">O</tspan><tspan x="86.389" y="0" style="" font-family="'Montserrat-Regular'" font-size="10px">GRAM</tspan></text><text transform="matrix(1 0 0 1 -377.0195 362.9998)"><tspan x="0" y="0" style="" font-family="'Montserrat-Regular'" font-size="10px">EXERCISE</tspan><tspan x="-7.57" y="12" style="" font-family="'Montserrat-Regular'" font-size="10px">STRESS TEST</tspan></text><text transform="matrix(1 0 0 1 -272.7246 362.9998)"><tspan x="0" y="0" style="" font-family="'Montserrat-Regular'" font-size="10px">CHEST</tspan><tspan x="1.18" y="12" style="" font-family="'Montserrat-Regular'" font-size="10px">X-R</tspan><tspan x="19.009" y="12" style="" font-family="'Montserrat-Regular'" font-size="10px">A</tspan><tspan x="25.899" y="12" style="" font-family="'Montserrat-Regular'" font-size="10px">Y</tspan></text><text transform="matrix(1 0 0 1 -195.4746 362.9998)"><tspan x="0" y="0" style="" font-family="'Montserrat-Regular'" font-size="10px">ULTR</tspan><tspan x="26" y="0" style="" font-family="'Montserrat-Regular'" font-size="10px">A</tspan><tspan x="33.32" y="0" style="" font-family="'Montserrat-Regular'" font-size="10px">SOUND</tspan></text><text transform="matrix(1 0 0 1 -83.5498 362.9998)"><tspan x="0" y="0" style="" font-family="'Montserrat-Regular'" font-size="10px">DIGI</tspan><tspan x="21.28" y="0" style="" font-family="'Montserrat-Regular'" font-size="10px">T</tspan><tspan x="26.38" y="0" style="" font-family="'Montserrat-Regular'" font-size="10px">AL</tspan><tspan x="-17.6" y="12" style="" font-family="'Montserrat-Regular'" font-size="10px">MAMM</tspan><tspan x="17.53" y="12" style="" font-family="'Montserrat-Regular'" font-size="10px">O</tspan><tspan x="25.35" y="12" style="" font-family="'Montserrat-Regular'" font-size="10px">GRAM</tspan></text><text transform="matrix(1 0 0 1 0.5352 362.9998)"><tspan x="0" y="0" style="" font-family="'Montserrat-Regular'" font-size="10px">P</tspan><tspan x="6.29" y="0" style="" font-family="'Montserrat-Regular'" font-size="10px">AP SMEAR/</tspan><tspan x="-2.64" y="12" style="" font-family="'Montserrat-Regular'" font-size="10px">PELVIC EXAM</tspan></text><text transform="matrix(1 0 0 1 -473.1699 458.9998)"><tspan x="0" y="0" style="" font-family="'Montserrat-Regular'" font-size="10px">DIABETES</tspan><tspan x="-4.775" y="12" style="" font-family="'Montserrat-Regular'" font-size="10px">SCREENING</tspan></text><text transform="matrix(1 0 0 1 -379.5 458.9998)"><tspan x="0" y="0" style="" font-family="'Montserrat-Regular'" font-size="10px">PROS</tspan><tspan x="28.28" y="0" style="" font-family="'Montserrat-Regular'" font-size="10px">TA</tspan><tspan x="40.07" y="0" style="" font-family="'Montserrat-Regular'" font-size="10px">TE </tspan><tspan x="9.705" y="12" style="" font-family="'Montserrat-Regular'" font-size="10px">CHECK</tspan></text><text transform="matrix(1 0 0 1 -277.5596 458.9998)" style="" font-family="'Montserrat-Regular'" font-size="10px">OBESITY</text><text transform="matrix(1 0 0 1 -205.7544 458.9998)"><tspan x="0" y="0" style="" font-family="'Montserrat-Regular'" font-size="10px">C</tspan><tspan x="6.82" y="0" style="" font-family="'Montserrat-Regular'" font-size="10px">OLON &amp; RECTUM</tspan><tspan x="30.7" y="12" style="" font-family="'Montserrat-Regular'" font-size="10px">EXAM</tspan></text><text transform="matrix(1 0 0 1 -81.4346 458.9998)" style="" font-family="'Montserrat-Regular'" font-size="10px">HEART</text><text transform="matrix(1 0 0 1 11.9751 458.9998)"><tspan x="0" y="0" style="" font-family="'Montserrat-Regular'" font-size="10px">DEN</tspan><tspan x="22.23" y="0" style="" font-family="'Montserrat-Regular'" font-size="10px">T</tspan><tspan x="27.33" y="0" style="" font-family="'Montserrat-Regular'" font-size="10px">AL</tspan></text></g><path d="M31,45.949V58h-4v2h10v-2h-4V45.949C44.113,45.422,53,36.242,53,25c0-11.58-9.421-21-21-21s-21,9.42-21,21  C11,36.242,19.887,45.422,31,45.949z M32,44c-8.744,0-16.107-5.945-18.31-14h6.807l10.799,10.71C31.491,40.903,31.745,41,32,41  s0.509-0.097,0.704-0.29L43.503,30h6.807C48.107,38.055,40.744,44,32,44z M19.985,26.676C18.705,25.406,18,23.719,18,21.924  s0.705-3.482,1.985-4.752l0.202-0.2c1.324-1.313,3.063-1.97,4.803-1.97s3.479,0.657,4.803,1.97l1.503,1.491  c0.389,0.387,1.02,0.387,1.408,0l1.503-1.491c2.648-2.627,6.957-2.625,9.605,0l0.202,0.201c0,0,0,0,0,0  C45.295,18.442,46,20.13,46,21.924s-0.705,3.482-1.985,4.751L42.679,28h-4.265l-0.707-0.707c-0.391-0.391-1.023-0.391-1.414,0  L35.586,28h-0.865l-0.772-2.316c-0.14-0.421-0.544-0.706-0.986-0.683c-0.444,0.017-0.824,0.325-0.932,0.756l-0.763,3.047  l-1.277-8.946c-0.068-0.478-0.469-0.839-0.952-0.857c-0.487-0.04-0.91,0.31-1.015,0.782l-1.786,8.04l-0.53-0.53  c-0.391-0.391-1.023-0.391-1.414,0L23.586,28h-2.265L19.985,26.676z M40.663,30L32,38.592L23.337,30H24  c0.266,0,0.52-0.105,0.707-0.293L25,29.414l0.293,0.293C25.48,29.895,25.734,30,26,30h1c0.469,0,0.874-0.326,0.977-0.783l0.81-3.644  l1.224,8.569c0.068,0.473,0.461,0.833,0.938,0.857C30.966,35,30.983,35,31.001,35c0.456,0,0.857-0.311,0.969-0.757l1.18-4.717  C33.329,29.816,33.648,30,34,30h2c0.266,0,0.52-0.105,0.707-0.293L37,29.414l0.293,0.293C37.48,29.895,37.734,30,38,30H40.663z   M32,6c10.477,0,19,8.523,19,19c0,1.023-0.104,2.02-0.261,3H45.51c1.604-1.637,2.49-3.787,2.49-6.076  c0-2.332-0.915-4.523-2.577-6.171l-0.202-0.201c-3.424-3.396-8.998-3.396-12.422,0L32,16.344l-0.799-0.792  c-3.424-3.396-8.998-3.397-12.422,0l-0.202,0.2C16.915,17.401,16,19.592,16,21.924c0,2.289,0.886,4.439,2.49,6.076h-5.229  C13.104,27.02,13,26.023,13,25C13,14.523,21.523,6,32,6z"/><path d="M34,52c0.602,0,1.198-0.021,1.789-0.063l-0.141-1.995C35.104,49.98,34.555,50,34,50V52z"/><path d="M41.901,50.728c0.655-0.217,1.31-0.466,1.946-0.739l-0.787-1.838c-0.586,0.25-1.188,0.479-1.788,0.678L41.901,50.728z"/><path d="M44.786,47.324l0.938,1.767c0.607-0.322,1.212-0.677,1.797-1.052l-1.082-1.683C45.9,46.702,45.345,47.027,44.786,47.324z"/><path d="M54.874,40.771c0.384-0.58,0.746-1.181,1.076-1.785l-1.756-0.959c-0.303,0.556-0.636,1.107-0.988,1.641L54.874,40.771z"/><path d="M56.292,32.69l1.938,0.492c0.171-0.673,0.315-1.358,0.429-2.038l-1.973-0.329C56.581,31.44,56.449,32.071,56.292,32.69z"/><path d="M57.635,35.178l-1.891-0.653c-0.209,0.606-0.445,1.206-0.701,1.782l1.828,0.812C57.149,36.49,57.406,35.837,57.635,35.178z"/><path d="M59,27h-2c0,0.642-0.026,1.286-0.078,1.915l1.992,0.165C58.972,28.397,59,27.697,59,27z"/><path d="M37.857,51.705c0.688-0.107,1.374-0.243,2.042-0.404l-0.469-1.944c-0.615,0.148-1.247,0.273-1.88,0.372L37.857,51.705z"/><path d="M49.222,46.839c0.549-0.421,1.087-0.871,1.599-1.335l-1.346-1.48c-0.471,0.428-0.966,0.842-1.47,1.229L49.222,46.839z"/><path d="M50.837,42.677l1.463,1.364c0.469-0.502,0.925-1.035,1.355-1.582l-1.57-1.237C51.688,41.725,51.269,42.214,50.837,42.677z"/><path d="M18.015,48.95l0.959-1.755c-0.557-0.304-1.108-0.637-1.642-0.988l-1.102,1.669C16.81,48.258,17.409,48.619,18.015,48.95z"/><path d="M5.699,32.899l1.943-0.469c-0.149-0.621-0.274-1.253-0.371-1.879l-1.977,0.306C5.4,31.538,5.536,32.225,5.699,32.899z"/><path d="M7.012,36.848l1.838-0.789c-0.247-0.576-0.477-1.178-0.681-1.79l-1.896,0.634C6.494,35.567,6.743,36.221,7.012,36.848z"/><path d="M15.778,45.084c-0.5-0.393-0.989-0.812-1.455-1.246l-1.363,1.464c0.507,0.471,1.038,0.927,1.582,1.354L15.778,45.084z"/><path d="M10.161,42.225c0.425,0.552,0.874,1.089,1.336,1.596l1.479-1.346c-0.424-0.467-0.838-0.961-1.23-1.471L10.161,42.225z"/><path d="M25.854,51.659l0.33-1.973c-0.629-0.105-1.259-0.237-1.875-0.394l-0.492,1.938C24.487,51.401,25.173,51.545,25.854,51.659z"/><path d="M28.085,49.922l-0.164,1.993C28.605,51.971,29.305,52,30,52v-2C29.359,50,28.715,49.974,28.085,49.922z"/><path d="M21.821,50.634l0.654-1.891c-0.604-0.208-1.204-0.444-1.784-0.701l-0.809,1.829C20.514,50.151,21.166,50.407,21.821,50.634z  "/><path d="M8.963,40.521l1.682-1.081c-0.341-0.531-0.667-1.087-0.97-1.654l-1.764,0.941C8.238,39.341,8.592,39.945,8.963,40.521z"/><path d="M7.058,28.648C7.02,28.104,7,27.554,7,27H5c0,0.602,0.021,1.198,0.063,1.789L7.058,28.648z"/></svg>