<svg xmlns="http://www.w3.org/2000/svg" xmlns:xlink="http://www.w3.org/1999/xlink" version="1.1" x="0px" y="0px" viewBox="0 2 64 64" style="enable-background:new 0 0 64 64;" xml:space="preserve"><g><path d="M49,12h-7c0-1.6543-1.3457-3-3-3h-2c0-2.7568-2.2432-5-5-5c-1.3242,0-2.5786,0.5176-3.542,1.4678   C27.5176,6.4214,27,7.6758,27,9h-2c-1.6543,0-3,1.3457-3,3h-7c-1.6543,0-3,1.3457-3,3v42c0,1.6543,1.3457,3,3,3h34   c1.6543,0,3-1.3457,3-3V15C52,13.3457,50.6543,12,49,12z M24,12c0-0.5513,0.4487-1,1-1h3c0.5522,0,1-0.4478,1-1V9   c0-0.7954,0.3135-1.5513,0.8721-2.1182C30.4487,6.3135,31.2046,6,32,6c1.6543,0,3,1.3457,3,3v1c0,0.5522,0.4478,1,1,1h3   c0.5513,0,1,0.4487,1,1v1v2c0,0.5513-0.4487,1-1,1H25c-0.5513,0-1-0.4487-1-1v-2V12z M50,57c0,0.5513-0.4487,1-1,1H15   c-0.5513,0-1-0.4487-1-1V15c0-0.5513,0.4487-1,1-1h7v1c0,1.6543,1.3457,3,3,3h14c1.6543,0,3-1.3457,3-3v-1h7c0.5513,0,1,0.4487,1,1   V57z"/><path d="M25.2319,24.3599l-4.2993,5.1587L18.707,27.293c-0.3906-0.3906-1.0234-0.3906-1.4141,0s-0.3906,1.0234,0,1.4141l3,3   C20.481,31.895,20.7354,32,21,32c0.0151,0,0.0303-0.0005,0.0454-0.001c0.2808-0.0127,0.543-0.1431,0.7227-0.3589l5-6   c0.3535-0.4243,0.2964-1.0547-0.1279-1.4082C26.2158,23.8779,25.585,23.9355,25.2319,24.3599z"/><path d="M46,27H31c-0.5522,0-1,0.4478-1,1s0.4478,1,1,1h15c0.5522,0,1-0.4478,1-1S46.5522,27,46,27z"/><path d="M25.2319,34.3599l-4.2993,5.1587L18.707,37.293c-0.3906-0.3906-1.0234-0.3906-1.4141,0s-0.3906,1.0234,0,1.4141l3,3   C20.481,41.895,20.7354,42,21,42c0.0151,0,0.0303-0.0005,0.0454-0.001c0.2808-0.0127,0.543-0.1431,0.7227-0.3589l5-6   c0.3535-0.4243,0.2964-1.0547-0.1279-1.4082C26.2158,33.8779,25.585,33.9355,25.2319,34.3599z"/><path d="M46,37H31c-0.5522,0-1,0.4478-1,1s0.4478,1,1,1h15c0.5522,0,1-0.4478,1-1S46.5522,37,46,37z"/><path d="M25.2319,44.3599l-4.2993,5.1587L18.707,47.293c-0.3906-0.3906-1.0234-0.3906-1.4141,0s-0.3906,1.0234,0,1.4141l3,3   C20.481,51.895,20.7354,52,21,52c0.0151,0,0.0303-0.0005,0.0454-0.001c0.2808-0.0127,0.543-0.1431,0.7227-0.3589l5-6   c0.3535-0.4243,0.2964-1.0547-0.1279-1.4082S25.585,43.9351,25.2319,44.3599z"/><path d="M46,47H31c-0.5522,0-1,0.4478-1,1s0.4478,1,1,1h15c0.5522,0,1-0.4478,1-1S46.5522,47,46,47z"/></g></svg>