<svg xmlns="http://www.w3.org/2000/svg" xmlns:xlink="http://www.w3.org/1999/xlink" version="1.1" x="0px" y="0px" viewBox="-5 -5 65 65" style="enable-background:new 0 0 52 52;" xml:space="preserve"><style type="text/css">
	.st0{fill:none;stroke:#000000;stroke-width:2;stroke-linejoin:round;stroke-miterlimit:10;}
	.st1{fill:none;stroke:#000000;stroke-width:2;stroke-linecap:round;stroke-linejoin:round;stroke-miterlimit:10;}
</style><g><path class="st0" d="M41.6,27.5c4.1,0,7.4-3.3,7.4-7.4c0-4.1-3.3-7.4-7.4-7.4c0,0-0.1,0-0.1,0c-0.4-3.3-3.2-5.9-6.6-5.9   c-2.6,0-4.8,1.5-5.9,3.7c-1-3.7-4.3-6.4-8.3-6.4c-4.8,0-8.6,3.9-8.6,8.6c0,0.1,0,0.1,0,0.2c-0.5-0.1-1.1-0.2-1.7-0.2   C6.3,12.6,3,16,3,20c0,4.1,3.3,7.4,7.4,7.4H41.6z"/><circle class="st0" cx="6" cy="45" r="3"/><circle class="st0" cx="26" cy="45" r="3"/><circle class="st0" cx="46" cy="45" r="3"/><line class="st0" x1="26" y1="42" x2="26" y2="27.5"/><polyline class="st0" points="9,45 14,45 14,27.5  "/><polyline class="st0" points="43,45 38,45 38,27.5  "/></g></svg>