<svg xmlns="http://www.w3.org/2000/svg" xmlns:xlink="http://www.w3.org/1999/xlink" version="1.1" x="0px" y="0px" viewBox="-10 -10 120 120" enable-background="new 0 0 100 100" xml:space="preserve"><g><polygon points="13.571,10.356 11.429,10.356 9.089,10.356 5,10.356 5,12.499 9.286,12.499 9.286,23.213 5,23.213 5,25.356    9.286,25.356 9.286,36.071 5,36.071 5,38.214 9.286,38.214 9.286,48.929 5,48.929 5,51.071 9.286,51.071 9.286,61.786 5,61.786    5,63.929 9.286,63.929 9.286,74.643 5,74.643 5,76.786 9.286,76.786 9.286,87.5 5,87.5 5,89.643 9.286,89.643 9.286,93.929    11.429,93.929 11.429,89.643 22.143,89.643 22.143,93.929 24.286,93.929 24.286,89.643 35,89.643 35,93.929 37.143,93.929    37.143,89.643 47.857,89.643 47.857,93.929 50,93.929 50,89.643 60.714,89.643 60.714,93.929 62.857,93.929 62.857,89.643    73.681,89.643 73.681,93.929 75.714,93.929 75.714,89.643 86.429,89.643 86.429,93.929 88.571,93.929 88.571,89.643 88.571,87.059    88.571,85.357 13.571,85.357  "/><path d="M84.7,6.071c-5.68,0-10.298,4.546-10.298,10.136c0,3.278,1.615,6.169,4.074,8.022l-8.075,19.165   c-0.454-0.061-0.902-0.136-1.371-0.136c-2.871,0-5.466,1.166-7.337,3.039l-10.101-5.679c0.224-0.835,0.383-1.695,0.383-2.597   c0-5.589-4.619-10.137-10.296-10.137c-5.679,0-10.3,4.547-10.3,10.137c0,3.472,1.787,6.54,4.501,8.367l-4.97,13.798   c-0.281-0.022-0.548-0.083-0.835-0.083c-5.68,0-10.3,4.547-10.3,10.134c0,5.592,4.621,10.14,10.3,10.14   c5.677,0,10.298-4.548,10.298-10.14c0-3.469-1.787-6.537-4.5-8.364l4.968-13.798c0.28,0.021,0.55,0.083,0.837,0.083   c2.871,0,5.464-1.167,7.334-3.041l10.101,5.682c-0.226,0.833-0.385,1.695-0.385,2.597c0,5.589,4.62,10.137,10.3,10.137   c5.678,0,10.296-4.548,10.296-10.137c0-3.279-1.613-6.167-4.072-8.021l8.075-19.165c0.452,0.06,0.902,0.137,1.371,0.137   c5.68,0,10.3-4.547,10.3-10.138C95,10.618,90.38,6.071,84.7,6.071z M30.076,75.206c-2.786,0-5.05-2.229-5.05-4.971   c0-2.736,2.264-4.966,5.05-4.966c2.783,0,5.047,2.229,5.047,4.966C35.124,72.978,32.859,75.206,30.076,75.206z M41.68,42.988   c-2.783,0-5.047-2.231-5.047-4.968c0-2.739,2.264-4.97,5.047-4.97s5.045,2.23,5.045,4.97C46.725,40.757,44.463,42.988,41.68,42.988   z M69.03,58.362c-2.783,0-5.05-2.229-5.05-4.968c0-2.74,2.267-4.968,5.05-4.968c2.781,0,5.046,2.229,5.046,4.968   C74.076,56.134,71.812,58.362,69.03,58.362z M84.7,21.176c-2.783,0-5.048-2.229-5.048-4.969c0-2.739,2.265-4.968,5.048-4.968   s5.047,2.229,5.047,4.968C89.747,18.947,87.483,21.176,84.7,21.176z"/></g></svg>