<svg xmlns="http://www.w3.org/2000/svg" xmlns:xlink="http://www.w3.org/1999/xlink" version="1.1" x="0px" y="0px" viewBox="-15 -10 120 120" style="enable-background:new 0 0 100 100;" xml:space="preserve"><g><path d="M78.132,95c3.984,0,7.226-3.242,7.226-7.226v-58.54c0-0.129-0.015-0.254-0.038-0.377c-0.001-0.004,0-0.007-0.001-0.011   c-0.035-0.179-0.1-0.345-0.179-0.503c-0.014-0.028-0.029-0.054-0.044-0.082c-0.096-0.17-0.21-0.328-0.35-0.463L62.533,5.586   c-0.029-0.029-0.066-0.045-0.097-0.072c-0.091-0.081-0.188-0.153-0.292-0.216c-0.06-0.036-0.119-0.069-0.181-0.098   c-0.115-0.054-0.235-0.097-0.36-0.128c-0.071-0.018-0.14-0.029-0.212-0.039C61.3,5.02,61.209,5.004,61.114,5.004H21.868   c-3.984,0-7.226,3.242-7.226,7.226v75.543c0,3.984,3.241,7.226,7.226,7.226H78.132z M63.119,11.829l15.41,15.41H66.345   c-1.778,0-3.226-1.447-3.226-3.226V11.829z M18.643,87.774V12.23c0-1.779,1.447-3.226,3.226-3.226h37.251v15.008   c0,3.984,3.241,7.226,7.226,7.226h15.013v56.536c0,1.779-1.447,3.226-3.226,3.226H21.868C20.09,91,18.643,89.553,18.643,87.774z"/><path d="M30.986,75.408h38.027c1.104,0,2-0.896,2-2s-0.896-2-2-2H30.986c-1.104,0-2,0.896-2,2S29.882,75.408,30.986,75.408z"/><path d="M30.986,59.632h38.027c1.104,0,2-0.896,2-2s-0.896-2-2-2H30.986c-1.104,0-2,0.896-2,2S29.882,59.632,30.986,59.632z"/><path d="M30.986,43.718h38.027c1.104,0,2-0.896,2-2s-0.896-2-2-2H30.986c-1.104,0-2,0.896-2,2S29.882,43.718,30.986,43.718z"/><path d="M30.986,28.596H50c1.104,0,2-0.896,2-2s-0.896-2-2-2H30.986c-1.104,0-2,0.896-2,2S29.882,28.596,30.986,28.596z"/></g></svg>