<svg xmlns="http://www.w3.org/2000/svg" xmlns:xlink="http://www.w3.org/1999/xlink" xml:space="preserve" version="1.1" style="shape-rendering:geometricPrecision;text-rendering:geometricPrecision;image-rendering:optimizeQuality;" viewBox="0 0 800.88 800.875" x="0px" y="0px" fill-rule="evenodd" clip-rule="evenodd"><defs><style type="text/css">
   
    .fil0 {fill:black}
   
  </style></defs><g><path class="fil0" d="M516.46 0l130.42 130.41 0 517.4 -58 0 0 53.88 -56.62 0 0 56.61 -532.26 0 0 -647.8 56.62 0 0 -56.61 58 0 0 -53.89c133.94,0 267.89,0 401.84,0zm-7.69 701.69l-452.15 0 0 -567.71 -33.13 0 0 600.83 485.28 0 0 -33.12zm56.62 -53.88l-450.77 0 0 -570.44 -34.52 0 0 600.83 485.29 0 0 -30.39zm-341.37 -96.04l313.46 0 0 23.49 -313.46 0 0 -23.49zm0 -85.95l313.46 0 0 23.48 -313.46 0 0 -23.48zm0 -85.97l313.46 0 0 23.49 -313.46 0 0 -23.49zm0 -85.95l313.46 0 0 23.48 -313.46 0 0 -23.48zm0 -85.96l313.46 0 0 23.48 -313.46 0 0 -23.48zm399.37 -39.29l-142.97 0 0 -145.16 -342.32 0c0,200.28 0,400.56 0,600.83 161.77,0 323.53,0 485.29,0l0 -455.67zm0 -23.49l-119.48 0 0 -121.67 2.82 0 116.66 116.65 0 5.02z"/></g>></svg>