<svg xmlns="http://www.w3.org/2000/svg" xmlns:xlink="http://www.w3.org/1999/xlink" version="1.1" x="0px" y="0px" viewBox="-10 -10 120 120" enable-background="new 0 0 100 100" xml:space="preserve"><rect x="5" y="5" fill="none" width="90" height="90"/><path d="M78.34,67.547c-5.382,0-9.864,3.888-10.809,9H24.339c-6.735,0-6.993-6.292-7-7v-9c0-6.735,6.292-6.993,7-7H40.53  c0.944,5.112,5.428,9,10.81,9s9.864-3.888,10.809-9H77.34c8.701,0,11-7.195,11-11v-9c0-8.701-7.195-11-11-11H35.148  c-0.944-5.112-5.427-9-10.809-9c-6.065,0-11,4.935-11,11s4.935,11,11,11c5.382,0,9.865-3.888,10.809-9H77.33  c0.718,0.007,7.01,0.265,7.01,7v8.99c-0.007,0.717-0.265,7.01-7,7.01H62.148c-0.944-5.112-5.427-9-10.809-9s-9.865,3.888-10.81,9  H24.339c-3.805,0-11,2.299-11,11v9c0,3.805,2.299,11,11,11h43.192c0.944,5.112,5.427,9,10.809,9c6.065,0,11-4.935,11-11  S84.405,67.547,78.34,67.547z M24.339,31.547c-3.86,0-7-3.14-7-7s3.14-7,7-7s7,3.14,7,7S28.199,31.547,24.339,31.547z M51.34,44.547  c3.859,0,7,3.14,7,7c0,3.859-3.141,7-7,7c-3.86,0-7-3.141-7-7C44.339,47.687,47.48,44.547,51.34,44.547z M78.34,85.547  c-3.859,0-7-3.141-7-7s3.141-7,7-7s7,3.141,7,7S82.199,85.547,78.34,85.547z"/><g><polygon points="23.063,31.055 18.5,26.492 21.328,23.664 23.077,25.413 28.038,20.5 30.853,23.343  "/></g><g><polygon points="49.731,57.517 45.167,52.953 47.996,50.125 49.745,51.874 54.706,46.961 57.521,49.804  "/></g><g><polygon points="76.74,84.526 72.178,79.963 75.006,77.135 76.754,78.884 81.716,73.971 84.53,76.813  "/></g></svg>