<svg xmlns="http://www.w3.org/2000/svg" xmlns:xlink="http://www.w3.org/1999/xlink" version="1.1" x="0px" y="0px" viewBox="-3 -1.5 55 55" enable-background="new 0 0 50 50" xml:space="preserve"><g><path d="M6.16312,6.51528v3.75c0,0.55225,0.44727,1,1,1h3.75c0.55273,0,1-0.44775,1-1s-0.44727-1-1-1H9.58231   c8.59302-8.39063,22.40308-8.33887,30.9187,0.17578c0.39061,0.39061,1.02343,0.39064,1.41406,0   c0.39063-0.39063,0.39063-1.02344,0-1.41406C32.61844-1.26964,17.53519-1.31993,8.16312,7.85585V6.51528c0-0.55225-0.44727-1-1-1   S6.16312,5.96303,6.16312,6.51528z"/><path d="M42.83695,44.45278c0.55273,0,1-0.44775,1-1v-3.75c0-0.55225-0.44727-1-1-1h-3.75c-0.55273,0-1,0.44775-1,1s0.44727,1,1,1   h1.24927c-8.59082,8.41895-22.42334,8.37524-30.94849-0.14893c-0.39063-0.39063-1.02344-0.39063-1.41406,0   s-0.39063,1.02344,0,1.41406c4.67871,4.67871,10.82519,7.01807,16.9707,7.01807c6.11255,0,12.22339-2.31873,16.89258-6.94751   v1.41431C41.83695,44.00502,42.28421,44.45278,42.83695,44.45278z"/><path d="M24.33207,25.92079c0.61654,0.21663,1.36058-0.25554,2.21484,0.90845c0.57813,0.78516,0.49805,1.94971-0.18164,2.65137   c-0.40625,0.41943-0.98242,0.64795-1.52539,0.63672c-0.5752-0.0083-1.10547-0.24609-1.49219-0.66992   c-0.37305-0.4082-1.00488-0.43506-1.41309-0.06348c-0.40723,0.37305-0.43555,1.00537-0.06348,1.41309   c0.56812,0.62085,1.31787,1.04578,2.13086,1.22461v1.64795c0,0.55225,0.44727,1,1,1s1-0.44775,1-1v-1.7301   c0.67358-0.1947,1.29492-0.54504,1.80078-1.06726c1.36133-1.40576,1.51367-3.65332,0.35547-5.22803   c-1.75815-2.39114-3.34176-0.98126-4.54395-2.29639c-0.37598-0.41064-0.56934-0.94092-0.54492-1.49414   c0.05148-1.16442,1.05194-2.03666,2.1543-1.98096c0.55176,0.02344,1.06348,0.26221,1.43848,0.67285   c0.37305,0.40869,1.00684,0.43555,1.41309,0.06299c0.40723-0.37256,0.43555-1.00537,0.06348-1.4126   c-0.5769-0.63086-1.3208-1.04663-2.13672-1.22363v-1.64697c0-0.55225-0.44727-1-1-1s-1,0.44775-1,1v1.72363   c-1.74255,0.50711-2.8574,2.01852-2.93066,3.71729C20.98781,23.6624,22.22383,25.4784,24.33207,25.92079z"/><path d="M25.00003,41.04018c8.8457,0,16.04297-7.19678,16.04297-16.04297c0-8.8457-7.19727-16.04248-16.04297-16.04248   S8.95707,16.15151,8.95707,24.99721C8.95707,33.8434,16.15433,41.04018,25.00003,41.04018z M25.00003,10.95473   c7.74316,0,14.04297,6.29932,14.04297,14.04248s-6.2998,14.04297-14.04297,14.04297s-14.04297-6.2998-14.04297-14.04297   S17.25687,10.95473,25.00003,10.95473z"/></g></svg>