<svg xmlns="http://www.w3.org/2000/svg" xmlns:xlink="http://www.w3.org/1999/xlink" version="1.1" x="0px" y="0px" viewBox="5 0 90 90" style="enable-background:new 0 0 100 100;" xml:space="preserve"><g><path d="M34.2617188,29.6162109h-6.5253906c-1.6435547,0-2.9814453,1.3374023-2.9814453,2.980957v3.0693359   c0,0.5522461,0.4472656,1,1,1s1-0.4477539,1-1V32.597168c0-0.5410156,0.4404297-0.980957,0.9814453-0.980957h6.5253906   c0.5527344,0,1-0.4477539,1-1S34.8144531,29.6162109,34.2617188,29.6162109z"/><path d="M43.6669922,29.6162109h-1.5c-0.5527344,0-1,0.4477539-1,1s0.4472656,1,1,1h1.5c0.5527344,0,1-0.4477539,1-1   S44.2197266,29.6162109,43.6669922,29.6162109z"/><path d="M68.9472656,43.2929688c2.8779297,0,5.21875-2.3413086,5.21875-5.21875c0-2.8779297-2.3408203-5.2192383-5.21875-5.2192383   s-5.21875,2.3413086-5.21875,5.2192383C63.7285156,40.9516602,66.0693359,43.2929688,68.9472656,43.2929688z    M68.9472656,34.8549805c1.7744141,0,3.21875,1.4443359,3.21875,3.2192383s-1.4443359,3.21875-3.21875,3.21875   s-3.21875-1.4438477-3.21875-3.21875S67.1728516,34.8549805,68.9472656,34.8549805z"/><path d="M73.8251953,47.2241211h-9.7558594c-1.6777344,0-3.0419922,1.3647461-3.0419922,3.0419922v8.2739258   c0,1.6772461,1.3642578,3.0415039,3.0419922,3.0415039h9.7558594c1.6777344,0,3.0419922-1.3642578,3.0419922-3.0415039v-8.2739258   C76.8671875,48.5888672,75.5029297,47.2241211,73.8251953,47.2241211z M74.8671875,58.5400391   c0,0.5742188-0.4677734,1.0415039-1.0419922,1.0415039h-9.7558594c-0.5742188,0-1.0419922-0.4672852-1.0419922-1.0415039   v-8.2739258c0-0.574707,0.4677734-1.0419922,1.0419922-1.0419922h9.7558594c0.5742188,0,1.0419922,0.4672852,1.0419922,1.0419922   V58.5400391z"/><path d="M71.3359375,51.3520508h-4.7773438c-0.5527344,0-1,0.4477539-1,1s0.4472656,1,1,1h4.7773438c0.5527344,0,1-0.4477539,1-1   S71.8886719,51.3520508,71.3359375,51.3520508z"/><path d="M71.3359375,55.2617188h-4.7773438c-0.5527344,0-1,0.4477539-1,1s0.4472656,1,1,1h4.7773438c0.5527344,0,1-0.4477539,1-1   S71.8886719,55.2617188,71.3359375,55.2617188z"/><path d="M83.7099609,59.9008789C85.5244141,59.9008789,87,58.4248047,87,56.6103516V39.8378906   c0-1.8139648-1.4755859-3.2900391-3.2900391-3.2900391h-2.0768433   c-1.6026001-6.9595947-7.7756958-11.9316406-15.0090942-11.9316406H32.9228516v-3.2231445c0-0.5522461-0.4472656-1-1-1h-7.5068359   c-0.5527344,0-1,0.4477539-1,1v3.2231445h-2.6611328c-0.5527344,0-1,0.4477539-1,1v20.0180664   c0,2.3825073,1.5316162,4.4094849,3.6611328,5.1665039v3.5478516c0,0.5522461,0.4472656,1,1,1h2.7529297v5.2329102   c0,0.5522461,0.4472656,1,1,1s1-0.4477539,1-1v-5.2329102h2.7539063c0.5527344,0,1-0.4477539,1-1v-3.5478516   c2.1295166-0.757019,3.6611328-2.7839966,3.6611328-5.1665039v-3.230957h16.7539063   c1.4707031,0,2.6679688,1.1923828,2.6679688,2.6577148v20.6162109H16.9824219C14.7861328,65.6772461,13,67.4638672,13,69.659668   c0,1.8322754,1.2503662,3.3637695,2.9382935,3.8259277l1.3410034,2.6960449   c1.0507813,2.112793,3.1689453,3.425293,5.5283203,3.425293h54.3847656c2.359375,0,4.4775391-1.3125,5.5283203-3.425293   l1.3410034-2.6960449C85.7496338,73.0234375,87,71.4919434,87,69.659668c0-2.1958008-1.7861328-3.9824219-3.9824219-3.9824219   h-0.9599609v-5.7763672H83.7099609z M83.7099609,38.5478516C84.4208984,38.5478516,85,39.1264648,85,39.8378906v16.7724609   c0,0.7114258-0.5791016,1.2905273-1.2900391,1.2905273h-1.6523438V40.0488281c0-0.4759521-0.0266724-0.9529419-0.0724487-1.4274292   c-0.0023804-0.0244751-0.0012207-0.0490723-0.0037231-0.0735474H83.7099609z M25.4160156,22.3930664h5.5068359v2.2231445   h-5.5068359V22.3930664z M30.9228516,53.3486328h-5.5068359v-2.2231445h5.5068359V53.3486328z M80.9296875,75.2910156   c-0.7099609,1.4287109-2.1416016,2.315918-3.7373047,2.315918H22.8076172c-1.5957031,0-3.0273438-0.887207-3.7373047-2.315918   L18.25,73.6420898h63.5L80.9296875,75.2910156z M85,69.659668c0,1.0932617-0.8896484,1.9824219-1.9824219,1.9824219H16.9824219   C15.8896484,71.6420898,15,70.7529297,15,69.659668s0.8896484-1.9824219,1.9824219-1.9824219h40.0065308   c0.0059814,0.0001221,0.0109253,0.003418,0.0169067,0.003418h24.0517578c0.0059814,0,0.0109253-0.0032959,0.0169067-0.003418   h1.9430542C84.1103516,67.6772461,85,68.5664063,85,69.659668z M58.0058594,65.6772461V45.0610352   c0-2.5683594-2.09375-4.6577148-4.6679688-4.6577148H35.5839844c-0.5527344,0-1,0.4477539-1,1v4.230957   c0,1.9233398-1.5693359,3.4882813-3.4980469,3.4882813h-5.8330078c-1.9287109,0-3.4980469-1.5649414-3.4980469-3.4882813   V26.6162109h2.6611328h7.5068359h34.7011719c6.5439453,0,12.1044922,4.6694336,13.2226563,11.1118164   c0.1396484,0.7651367,0.2109375,1.5458984,0.2109375,2.3208008v18.8520508v6.7763672H58.0058594z"/></g>></svg>